<svg width="25" height="24" viewBox="0 0 25 24" fill="none" xmlns="http://www.w3.org/2000/svg">
<g opacity="0.7">
<path d="M18.2745 8C18.2745 6.4087 17.6362 4.88258 16.4999 3.75736C15.3637 2.63214 13.8226 2 12.2157 2C10.6088 2 9.0677 2.63214 7.93145 3.75736C6.7952 4.88258 6.15686 6.4087 6.15686 8C6.15686 15 3.12745 17 3.12745 17H21.3039C21.3039 17 18.2745 15 18.2745 8Z" stroke="black" stroke-width="2" stroke-linecap="round" stroke-linejoin="round"/>
<path d="M13.9626 21C13.785 21.3031 13.5302 21.5547 13.2236 21.7295C12.917 21.9044 12.5694 21.9965 12.2156 21.9965C11.8618 21.9965 11.5142 21.9044 11.2076 21.7295C10.901 21.5547 10.6462 21.3031 10.4686 21" stroke="black" stroke-width="2" stroke-linecap="round" stroke-linejoin="round"/>
</g>
</svg>
