<svg width="28" height="27" viewBox="0 0 28 27" fill="none" xmlns="http://www.w3.org/2000/svg">
<path d="M17.3888 3.19692L15.7806 1.73787C14.7704 0.821355 13.2296 0.821354 12.2194 1.73787L10.6112 3.19692C10.3495 3.43439 10.005 3.55976 9.65188 3.54609L7.4821 3.4621C6.11913 3.40934 4.93873 4.39981 4.75401 5.75123L4.45995 7.90263C4.41209 8.25279 4.22882 8.57023 3.9495 8.78676L2.23337 10.1171C1.15536 10.9528 0.88778 12.4703 1.61496 13.6243L2.77258 15.4614C2.961 15.7604 3.02465 16.1213 2.94986 16.4668L2.49037 18.589C2.20173 19.9221 2.97218 21.2566 4.271 21.6731L6.33865 22.3363C6.67518 22.4443 6.95597 22.6799 7.12071 22.9925L8.13286 24.9136C8.76865 26.1204 10.2166 26.6474 11.4794 26.1316L13.4895 25.3106C13.8167 25.177 14.1833 25.177 14.5105 25.3106L16.5206 26.1316C17.7834 26.6474 19.2313 26.1204 19.8671 24.9136L20.8793 22.9925C21.044 22.6799 21.3248 22.4443 21.6613 22.3363L23.729 21.6731C25.0278 21.2566 25.7983 19.9221 25.5096 18.589L25.0501 16.4668C24.9754 16.1213 25.039 15.7604 25.2274 15.4614L26.385 13.6243C27.1122 12.4703 26.8446 10.9528 25.7666 10.1171L24.0505 8.78676C23.7712 8.57023 23.5879 8.25279 23.5401 7.90263L23.246 5.75124C23.0613 4.39981 21.8809 3.40934 20.5179 3.4621L18.3481 3.54609C17.995 3.55976 17.6505 3.43439 17.3888 3.19692Z" fill="#3F52FF" stroke="white" stroke-width="1.3"/>
<path d="M13.2321 18.7958C13.597 18.7958 13.8827 18.645 14.0811 18.3435L19.5321 9.86938C19.6749 9.64722 19.7384 9.44885 19.7384 9.25842C19.7384 8.76648 19.3893 8.42529 18.8973 8.42529C18.5482 8.42529 18.3419 8.55225 18.1277 8.8855L13.2003 16.7407L10.6454 13.4161C10.4391 13.1543 10.2328 13.0432 9.93127 13.0432C9.42346 13.0432 9.06641 13.4003 9.06641 13.8843C9.06641 14.0985 9.13782 14.3048 9.32031 14.519L12.3751 18.3594C12.6211 18.653 12.875 18.7958 13.2321 18.7958Z" fill="white"/>
</svg>
